<mxfile host="www.draw.io" modified="2020-02-07T21:08:51.334Z" agent="Mozilla/5.0 (Windows NT 10.0; Win64; x64) AppleWebKit/537.36 (KHTML, like Gecko) Chrome/79.0.3945.130 Safari/537.36" etag="PIK8crEHtiiJZlaMwBGj" version="12.6.6" type="github">
  <diagram id="el-BLGQv1clutZQsBM_p" name="Page-1">
    <mxGraphModel dx="1102" dy="614" grid="1" gridSize="10" guides="1" tooltips="1" connect="1" arrows="1" fold="1" page="1" pageScale="1" pageWidth="850" pageHeight="1100" math="0" shadow="0">
      <root>
        <mxCell id="0"/>
        <mxCell id="1" parent="0"/>
        <mxCell id="jYdJcBJLV5QGpK6MgNny-1" value="2.0&lt;br&gt;Send dump file to office" style="whiteSpace=wrap;html=1;aspect=fixed;" vertex="1" parent="1">
          <mxGeometry x="400" y="35" width="80" height="80" as="geometry"/>
        </mxCell>
        <mxCell id="jYdJcBJLV5QGpK6MgNny-2" value="2.1&lt;br&gt;ssh2_sftp connection" style="whiteSpace=wrap;html=1;aspect=fixed;" vertex="1" parent="1">
          <mxGeometry x="40" y="280" width="80" height="80" as="geometry"/>
        </mxCell>
        <mxCell id="jYdJcBJLV5QGpK6MgNny-3" value="2.2&lt;br&gt;Login" style="whiteSpace=wrap;html=1;aspect=fixed;" vertex="1" parent="1">
          <mxGeometry x="280" y="280" width="80" height="80" as="geometry"/>
        </mxCell>
        <mxCell id="jYdJcBJLV5QGpK6MgNny-4" value="2.3&lt;br&gt;Upload file" style="whiteSpace=wrap;html=1;aspect=fixed;" vertex="1" parent="1">
          <mxGeometry x="520" y="280" width="80" height="80" as="geometry"/>
        </mxCell>
        <mxCell id="jYdJcBJLV5QGpK6MgNny-5" value="" style="endArrow=classic;html=1;entryX=0.5;entryY=0;entryDx=0;entryDy=0;exitX=0;exitY=1;exitDx=0;exitDy=0;" edge="1" parent="1" source="jYdJcBJLV5QGpK6MgNny-1" target="jYdJcBJLV5QGpK6MgNny-2">
          <mxGeometry width="50" height="50" relative="1" as="geometry">
            <mxPoint x="210" y="200" as="sourcePoint"/>
            <mxPoint x="260" y="150" as="targetPoint"/>
          </mxGeometry>
        </mxCell>
        <mxCell id="jYdJcBJLV5QGpK6MgNny-6" value="" style="endArrow=classic;html=1;exitX=0.25;exitY=1;exitDx=0;exitDy=0;entryX=0.5;entryY=0;entryDx=0;entryDy=0;" edge="1" parent="1" source="jYdJcBJLV5QGpK6MgNny-1" target="jYdJcBJLV5QGpK6MgNny-3">
          <mxGeometry width="50" height="50" relative="1" as="geometry">
            <mxPoint x="420" y="210" as="sourcePoint"/>
            <mxPoint x="470" y="160" as="targetPoint"/>
          </mxGeometry>
        </mxCell>
        <mxCell id="jYdJcBJLV5QGpK6MgNny-7" value="" style="ellipse;whiteSpace=wrap;html=1;aspect=fixed;fillColor=#000000;" vertex="1" parent="1">
          <mxGeometry x="350" y="240" width="10" height="10" as="geometry"/>
        </mxCell>
        <mxCell id="jYdJcBJLV5QGpK6MgNny-8" value="" style="ellipse;whiteSpace=wrap;html=1;aspect=fixed;" vertex="1" parent="1">
          <mxGeometry x="350" y="200" width="10" height="10" as="geometry"/>
        </mxCell>
        <mxCell id="jYdJcBJLV5QGpK6MgNny-9" value="" style="ellipse;whiteSpace=wrap;html=1;aspect=fixed;" vertex="1" parent="1">
          <mxGeometry x="180" y="250" width="10" height="10" as="geometry"/>
        </mxCell>
        <mxCell id="jYdJcBJLV5QGpK6MgNny-10" value="" style="ellipse;whiteSpace=wrap;html=1;aspect=fixed;" vertex="1" parent="1">
          <mxGeometry x="160" y="200" width="10" height="10" as="geometry"/>
        </mxCell>
        <mxCell id="jYdJcBJLV5QGpK6MgNny-11" value="" style="endArrow=classic;html=1;exitX=0.75;exitY=1;exitDx=0;exitDy=0;entryX=0.5;entryY=0;entryDx=0;entryDy=0;" edge="1" parent="1" source="jYdJcBJLV5QGpK6MgNny-1" target="jYdJcBJLV5QGpK6MgNny-4">
          <mxGeometry width="50" height="50" relative="1" as="geometry">
            <mxPoint x="480" y="220" as="sourcePoint"/>
            <mxPoint x="530" y="170" as="targetPoint"/>
          </mxGeometry>
        </mxCell>
        <mxCell id="jYdJcBJLV5QGpK6MgNny-12" value="2.4&lt;br&gt;Log failure" style="whiteSpace=wrap;html=1;aspect=fixed;" vertex="1" parent="1">
          <mxGeometry x="760" y="280" width="80" height="80" as="geometry"/>
        </mxCell>
        <mxCell id="jYdJcBJLV5QGpK6MgNny-13" value="" style="endArrow=classic;html=1;exitX=1;exitY=1;exitDx=0;exitDy=0;entryX=0.5;entryY=0;entryDx=0;entryDy=0;" edge="1" parent="1" source="jYdJcBJLV5QGpK6MgNny-1" target="jYdJcBJLV5QGpK6MgNny-12">
          <mxGeometry width="50" height="50" relative="1" as="geometry">
            <mxPoint x="630" y="170" as="sourcePoint"/>
            <mxPoint x="680" y="120" as="targetPoint"/>
          </mxGeometry>
        </mxCell>
        <mxCell id="jYdJcBJLV5QGpK6MgNny-14" value="" style="endArrow=classic;html=1;" edge="1" parent="1">
          <mxGeometry width="50" height="50" relative="1" as="geometry">
            <mxPoint x="160" y="210" as="sourcePoint"/>
            <mxPoint x="130" y="240" as="targetPoint"/>
          </mxGeometry>
        </mxCell>
        <mxCell id="jYdJcBJLV5QGpK6MgNny-15" value="Credentials" style="text;html=1;strokeColor=none;fillColor=none;align=center;verticalAlign=middle;whiteSpace=wrap;rounded=0;" vertex="1" parent="1">
          <mxGeometry x="70" y="200" width="90" height="20" as="geometry"/>
        </mxCell>
        <mxCell id="jYdJcBJLV5QGpK6MgNny-18" value="" style="endArrow=classic;html=1;" edge="1" parent="1">
          <mxGeometry width="50" height="50" relative="1" as="geometry">
            <mxPoint x="190" y="250" as="sourcePoint"/>
            <mxPoint x="230" y="220" as="targetPoint"/>
          </mxGeometry>
        </mxCell>
        <mxCell id="jYdJcBJLV5QGpK6MgNny-19" value="Connection&amp;nbsp;" style="text;html=1;strokeColor=none;fillColor=none;align=center;verticalAlign=middle;whiteSpace=wrap;rounded=0;" vertex="1" parent="1">
          <mxGeometry x="180" y="245" width="90" height="20" as="geometry"/>
        </mxCell>
        <mxCell id="jYdJcBJLV5QGpK6MgNny-20" value="" style="endArrow=classic;html=1;" edge="1" parent="1">
          <mxGeometry width="50" height="50" relative="1" as="geometry">
            <mxPoint x="350" y="210" as="sourcePoint"/>
            <mxPoint x="320" y="250" as="targetPoint"/>
          </mxGeometry>
        </mxCell>
        <mxCell id="jYdJcBJLV5QGpK6MgNny-21" value="Connection" style="text;html=1;strokeColor=none;fillColor=none;align=center;verticalAlign=middle;whiteSpace=wrap;rounded=0;" vertex="1" parent="1">
          <mxGeometry x="260" y="210" width="80" height="20" as="geometry"/>
        </mxCell>
        <mxCell id="jYdJcBJLV5QGpK6MgNny-22" value="" style="endArrow=classic;html=1;" edge="1" parent="1">
          <mxGeometry width="50" height="50" relative="1" as="geometry">
            <mxPoint x="360" y="240" as="sourcePoint"/>
            <mxPoint x="380" y="200" as="targetPoint"/>
          </mxGeometry>
        </mxCell>
        <mxCell id="jYdJcBJLV5QGpK6MgNny-24" value="Confirmation" style="text;html=1;strokeColor=none;fillColor=none;align=center;verticalAlign=middle;whiteSpace=wrap;rounded=0;" vertex="1" parent="1">
          <mxGeometry x="370" y="230" width="70" height="20" as="geometry"/>
        </mxCell>
        <mxCell id="jYdJcBJLV5QGpK6MgNny-25" value="" style="endArrow=classic;html=1;" edge="1" parent="1">
          <mxGeometry width="50" height="50" relative="1" as="geometry">
            <mxPoint x="460" y="150" as="sourcePoint"/>
            <mxPoint x="480" y="190" as="targetPoint"/>
          </mxGeometry>
        </mxCell>
        <mxCell id="jYdJcBJLV5QGpK6MgNny-28" value="" style="endArrow=classic;html=1;" edge="1" parent="1">
          <mxGeometry width="50" height="50" relative="1" as="geometry">
            <mxPoint x="510" y="220" as="sourcePoint"/>
            <mxPoint x="530" y="250" as="targetPoint"/>
          </mxGeometry>
        </mxCell>
        <mxCell id="jYdJcBJLV5QGpK6MgNny-29" value="Dump&lt;br&gt;file" style="text;html=1;strokeColor=none;fillColor=none;align=center;verticalAlign=middle;whiteSpace=wrap;rounded=0;" vertex="1" parent="1">
          <mxGeometry x="430" y="170" width="40" height="20" as="geometry"/>
        </mxCell>
        <mxCell id="jYdJcBJLV5QGpK6MgNny-30" value="" style="ellipse;whiteSpace=wrap;html=1;aspect=fixed;fillColor=#000000;" vertex="1" parent="1">
          <mxGeometry x="670" y="175" width="10" height="10" as="geometry"/>
        </mxCell>
        <mxCell id="jYdJcBJLV5QGpK6MgNny-32" value="" style="ellipse;whiteSpace=wrap;html=1;aspect=fixed;fillColor=#FFFFFF;" vertex="1" parent="1">
          <mxGeometry x="500" y="210" width="10" height="10" as="geometry"/>
        </mxCell>
        <mxCell id="jYdJcBJLV5QGpK6MgNny-33" value="" style="ellipse;whiteSpace=wrap;html=1;aspect=fixed;fillColor=#FFFFFF;" vertex="1" parent="1">
          <mxGeometry x="450" y="140" width="10" height="10" as="geometry"/>
        </mxCell>
        <mxCell id="jYdJcBJLV5QGpK6MgNny-34" value="" style="endArrow=classic;html=1;" edge="1" parent="1">
          <mxGeometry width="50" height="50" relative="1" as="geometry">
            <mxPoint x="670" y="180" as="sourcePoint"/>
            <mxPoint x="630" y="160" as="targetPoint"/>
          </mxGeometry>
        </mxCell>
        <mxCell id="jYdJcBJLV5QGpK6MgNny-36" value="Remote location to store" style="text;html=1;strokeColor=none;fillColor=none;align=center;verticalAlign=middle;whiteSpace=wrap;rounded=0;" vertex="1" parent="1">
          <mxGeometry x="470" y="235" width="40" height="20" as="geometry"/>
        </mxCell>
        <mxCell id="jYdJcBJLV5QGpK6MgNny-37" value="" style="endArrow=classic;html=1;" edge="1" parent="1">
          <mxGeometry width="50" height="50" relative="1" as="geometry">
            <mxPoint x="540" y="220" as="sourcePoint"/>
            <mxPoint x="520" y="190" as="targetPoint"/>
          </mxGeometry>
        </mxCell>
        <mxCell id="jYdJcBJLV5QGpK6MgNny-38" value="Success/&lt;br&gt;failure" style="text;html=1;strokeColor=none;fillColor=none;align=center;verticalAlign=middle;whiteSpace=wrap;rounded=0;" vertex="1" parent="1">
          <mxGeometry x="540" y="195" width="40" height="20" as="geometry"/>
        </mxCell>
        <mxCell id="jYdJcBJLV5QGpK6MgNny-39" value="" style="ellipse;whiteSpace=wrap;html=1;aspect=fixed;fillColor=#000000;" vertex="1" parent="1">
          <mxGeometry x="540" y="220" width="10" height="10" as="geometry"/>
        </mxCell>
        <mxCell id="jYdJcBJLV5QGpK6MgNny-40" value="Failed attempt message" style="text;html=1;strokeColor=none;fillColor=none;align=center;verticalAlign=middle;whiteSpace=wrap;rounded=0;" vertex="1" parent="1">
          <mxGeometry x="650" y="140" width="80" height="20" as="geometry"/>
        </mxCell>
      </root>
    </mxGraphModel>
  </diagram>
</mxfile>
